Coordinates
version=1
nRows=11
nColumns=36
inDegrees=yes

Units are S.I. units (second, meters, Newtons, ...)
If the header above contains a line with 'inDegrees', this indicates whether rotational values are in degrees (yes) or radians (no).

endheader
time	pelvis_tilt	pelvis_list	pelvis_rotation	pelvis_tx	pelvis_ty	pelvis_tz	hip_flexion_r	hip_adduction_r	hip_rotation_r	knee_angle_r	knee_angle_r_beta	ankle_angle_r	subtalar_angle_r	mtp_angle_r	hip_flexion_l	hip_adduction_l	hip_rotation_l	knee_angle_l	knee_angle_l_beta	ankle_angle_l	subtalar_angle_l	mtp_angle_l	lumbar_extension	lumbar_bending	lumbar_rotation	arm_flex_r	arm_add_r	arm_rot_r	elbow_flex_r	pro_sup_r	arm_flex_l	arm_add_l	arm_rot_l	elbow_flex_l	pro_sup_l
      2.30833330	    -29.13892272	      0.38493283	     -0.74512876	      0.22736261	      0.63459651	     -0.11137670	     92.15909975	    -13.17679249	     -0.51665550	     93.18680368	      1.62641654	     25.48308464	     -4.40929208	     -7.49999987	     94.03393441	     -9.41399744	     -1.10166951	     94.90427505	      1.65639207	     25.11595544	      2.71823844	     -7.49999987	    -31.69935048	      0.58970908	      3.80751459	     80.23133408	    -12.01496703	     28.30909511	    123.96122791	    106.68662989	     81.11123231	     -8.28488846	     33.84648980	    118.51436587	    100.73150694
      2.31250000	    -29.14454650	      0.35184505	     -0.78502502	      0.23050128	      0.63443699	     -0.11061597	     91.96042035	    -13.04979693	     -0.48253437	     93.22832310	      1.62714119	     25.76095934	     -4.46735195	     -7.49999987	     93.90221718	     -9.33257790	     -1.03489062	     94.94573852	      1.65711575	     25.38479270	      2.55199940	     -7.49999987	    -31.56491346	      0.60151556	      3.76027375	     80.16114246	    -11.86791014	     28.40593405	    124.04532015	    106.53626907	     81.10753468	     -8.24206258	     33.80763746	    118.23244533	    100.37461871
      2.31666670	    -29.18946513	      0.30952605	     -0.87277789	      0.23107997	      0.63556411	     -0.11133753	     91.72989101	    -12.91873248	     -0.48294775	     93.06376157	      1.62426905	     25.93856282	     -4.41839733	     -7.49999987	     93.75957074	     -9.23184493	     -0.87244712	     94.91997445	      1.65666608	     25.58614093	      2.26813227	     -7.49999987	    -31.48308804	      0.58876678	      3.83063845	     80.23851584	    -11.98162120	     28.35651544	    124.29092298	    106.73347327	     81.39878506	     -7.99533321	     33.81730274	    117.72415902	    100.64338364
      2.32083330	    -29.15757665	      0.26060320	     -0.95170343	      0.23321010	      0.63582888	     -0.10990595	     91.61499534	    -12.77893730	     -0.43292822	     93.16628876	      1.62605849	     26.02702659	     -4.49142423	     -7.49999987	     93.53325845	     -9.20652078	     -0.59150174	     94.92998024	      1.65684071	     25.94418825	      2.15939396	     -7.49999987	    -31.34901796	      0.61740180	      3.72911829	     80.30702213	    -11.81631903	     28.39987883	    124.28340790	    106.13353377	     81.45055464	     -8.08111107	     33.71621638	    117.36261727	    100.14752852
      2.32500000	    -29.06828359	      0.22143709	     -0.95663616	      0.23436414	      0.63831623	     -0.11076766	     91.26671730	    -12.60051209	     -0.24611940	     92.98067224	      1.62281887	     26.11442284	     -4.28826288	     -7.49999987	     93.21643480	     -9.06467886	     -0.42268977	     94.85337273	      1.65550366	     26.02601464	      1.99739818	     -7.49999987	    -31.40481695	      0.66153141	      3.71255512	     80.54572161	    -11.81938519	     28.37901979	    124.41300497	    106.80622605	     81.82104763	     -7.99485192	     33.71959066	    116.98543924	    101.28990609
      2.32916670	    -29.04003358	      0.25365311	     -0.97207079	      0.23620315	      0.63842877	     -0.11111361	     91.02989666	    -12.44703699	      0.00617431	     92.78017937	      1.61931961	     26.24350261	     -3.97487650	     -7.49999987	     92.99872620	     -8.88176703	     -0.25146138	     94.82026088	      1.65492575	     26.28904366	      2.04540423	     -7.49999987	    -31.28765604	      0.76339772	      3.65241547	     80.69959266	    -11.74724644	     28.37567113	    124.45121520	    105.84275321	     82.00148033	     -7.95209010	     33.52532667	    116.73288666	    100.39792800
      2.33333330	    -29.02665243	      0.25734075	     -0.99683397	      0.23878198	      0.63890635	     -0.11056401	     90.77569790	    -12.28656821	      0.16169363	     92.68933705	      1.61773411	     26.49930332	     -3.62630493	     -7.49999987	     92.76878898	     -8.76486146	     -0.06554567	     94.79346509	      1.65445808	     26.57945426	      2.22726824	     -7.49999987	    -31.11976536	      0.85927922	      3.63329098	     80.90372590	    -11.71195874	     28.49078320	    124.75123623	    105.12029122	     82.07579291	     -7.99398618	     33.30371113	    116.77292296	     99.79035371
      2.33750000	    -28.83488789	      0.33345730	     -1.01395297	      0.24086212	      0.64010962	     -0.11094956	     90.34900336	    -12.09278020	      0.42254360	     92.55042770	      1.61530969	     26.70947614	     -3.72339025	     -7.49999987	     92.31607737	     -8.56403471	      0.00911944	     94.75772740	      1.65383433	     26.72168861	      1.86645999	     -7.49999987	    -31.05447097	      1.04314760	      3.47647504	     81.38651983	    -11.42777662	     28.55058722	    124.44010279	    106.91030220	     82.14172451	     -8.24498807	     32.62239661	    116.73917667	    101.38772473
      2.34166670	    -28.78244460	      0.42144976	     -1.03516264	      0.24207728	      0.64077026	     -0.11137642	     90.18340476	    -11.94255858	      0.65375844	     92.56255658	      1.61552138	     26.71872644	     -4.17980154	     -7.49999987	     91.92896615	     -8.34856283	      0.13444209	     94.66400862	      1.65219863	     27.09836811	      1.81317594	     -7.49999987	    -30.80402952	      1.12749786	      3.56819517	     81.72604130	    -11.51757946	     28.42885644	    124.49254701	    106.41868419	     82.04189738	     -8.17374697	     32.01172525	    116.60473920	    101.32370729
      2.34583330	    -28.59854163	      0.53710696	     -0.97548698	      0.24364442	      0.64396430	     -0.11035621	     89.83030855	    -11.75524822	      1.03113844	     92.52468736	      1.61486043	     26.57016018	     -4.61655365	     -7.49999987	     91.24419823	     -8.10909426	      0.18721335	     94.37102516	      1.64708511	     27.28571281	      1.84326027	     -7.49999987	    -30.75361573	      1.20781416	      3.48992683	     82.24596499	    -11.29630392	     28.55354463	    124.29975717	    106.49553018	     82.06338143	     -8.42457723	     31.30144685	    116.80485749	    101.43003840
      2.35000000	    -28.37892395	      0.63392506	     -0.89585140	      0.24695175	      0.64625057	     -0.11082202	     89.33017745	    -11.60052517	      1.36068852	     92.47413349	      1.61397810	     26.57496007	     -5.21631861	     -7.49999987	     90.45420639	     -7.87398227	      0.16344019	     94.04328157	      1.64136490	     27.34325564	      1.56861760	     -7.49999987	    -30.65536369	      1.54625077	      3.27515606	     82.87955234	    -10.70094905	     29.37130840	    123.82437855	    106.82290184	     81.64946690	     -9.03395712	     30.25794224	    117.42176905	    101.21580730
